<svg xmlns="http://www.w3.org/2000/svg" xmlns:xlink="http://www.w3.org/1999/xlink" version="1.1" x="0px" y="0px" viewBox="0 0 139 173.75" enable-background="new 0 0 139 139" xml:space="preserve"><path d="M69.499,11.666c-31.94,0-57.833,25.894-57.833,57.834c0,31.94,25.893,57.834,57.833,57.834s57.836-25.895,57.836-57.834  C127.335,37.559,101.439,11.666,69.499,11.666z M61.489,79.371l-11.59,11.59h6.002c1.104,0,2,0.896,2,2s-0.896,2-2,2h-10.83  c-0.131,0-0.262-0.014-0.392-0.039c-0.059-0.012-0.114-0.034-0.171-0.051c-0.068-0.021-0.137-0.036-0.203-0.063  c-0.066-0.027-0.126-0.065-0.189-0.1c-0.051-0.028-0.105-0.051-0.155-0.084c-0.157-0.105-0.293-0.237-0.414-0.382  c-0.436-0.366-0.719-0.909-0.719-1.523v-10.83c0-1.104,0.896-2,2-2s2,0.896,2,2v6.486l11.832-11.832c0.78-0.781,2.048-0.781,2.828,0  C62.271,77.324,62.271,78.59,61.489,79.371z M61.489,62.222c-0.39,0.391-0.902,0.586-1.414,0.586s-1.023-0.195-1.414-0.586  L46.829,50.391v6.486c0,1.104-0.896,2-2,2s-2-0.896-2-2v-10.83c0-0.614,0.283-1.157,0.719-1.524  c0.121-0.144,0.256-0.276,0.414-0.381c0.051-0.034,0.107-0.058,0.161-0.087c0.061-0.033,0.119-0.07,0.183-0.096  c0.068-0.028,0.14-0.045,0.21-0.065c0.055-0.016,0.107-0.037,0.164-0.048c0.129-0.026,0.26-0.04,0.392-0.04h10.83  c1.104,0,2,0.896,2,2s-0.896,2-2,2h-6.002l11.59,11.589C62.271,60.175,62.271,61.441,61.489,62.222z M77.39,59.395l11.59-11.59  h-6.002c-1.104,0-2-0.896-2-2s0.896-2,2-2h10.83c0.131,0,0.263,0.014,0.392,0.04c0.06,0.012,0.115,0.034,0.173,0.051  c0.067,0.02,0.135,0.035,0.2,0.062c0.068,0.028,0.131,0.067,0.195,0.103c0.05,0.027,0.102,0.049,0.148,0.081  c0.158,0.105,0.294,0.237,0.415,0.382c0.436,0.367,0.719,0.91,0.719,1.524v10.83c0,1.104-0.896,2-2,2s-2-0.896-2-2v-6.486  L80.218,62.223c-0.391,0.391-0.902,0.586-1.414,0.586s-1.023-0.195-1.414-0.586C76.608,61.442,76.608,60.176,77.39,59.395z   M96.171,92.719c0,0.614-0.283,1.157-0.719,1.523c-0.121,0.145-0.257,0.277-0.415,0.382c-0.047,0.032-0.099,0.054-0.148,0.081  c-0.064,0.035-0.127,0.074-0.195,0.104c-0.065,0.026-0.133,0.042-0.2,0.062c-0.058,0.017-0.113,0.039-0.173,0.052  c-0.129,0.025-0.261,0.039-0.392,0.039h-10.83c-1.104,0-2-0.896-2-2s0.896-2,2-2h6.002l-11.59-11.59  c-0.781-0.781-0.781-2.047,0-2.828s2.047-0.781,2.828,0l11.832,11.832v-6.486c0-1.104,0.896-2,2-2s2,0.896,2,2V92.719z"/></svg>
