<svg xmlns:dc="http://purl.org/dc/elements/1.1/" xmlns:cc="http://creativecommons.org/ns#" xmlns:rdf="http://www.w3.org/1999/02/22-rdf-syntax-ns#" xmlns:svg="http://www.w3.org/2000/svg" xmlns="http://www.w3.org/2000/svg" xmlns:sodipodi="http://sodipodi.sourceforge.net/DTD/sodipodi-0.dtd" xmlns:inkscape="http://www.inkscape.org/namespaces/inkscape" version="1.1" x="0px" y="0px" viewBox="0 0 100 125"><g transform="translate(0,-952.36218)"><path style="text-indent:0;text-transform:none;direction:ltr;block-progression:tb;baseline-shift:baseline;color:#000000;enable-background:accumulate;" d="m 64.996505,971.36215 c -0.68092,0.033 -0.93548,0.53821 -1,1 l 0,9.75 -13.375,-10.5625 c -0.50225,-0.30604 -1.03966,-0.1285 -1.25,0 l -38,29.99995 c -0.40565,0.2765 -0.51479,1.0202 -0.1875,1.4375 0.3273,0.4173 1.02027,0.4837 1.4375,0.1563 l 37.375,-29.5 37.375,29.5 c 0.41723,0.3274 1.1102,0.261 1.4375,-0.1563 0.327288,-0.4173 0.241978,-1.1708 -0.1875,-1.4375 l -14.625,-11.53119 0,-17.65626 c -5e-5,-0.52358 -0.47642,-0.99995 -1,-1 l -8,0 z m 1,2 6,0 0,15.06246 -6,-4.75 0,-10.31246 z m -42,23.09376 -2,1.5625 0,34.34379 a 1.0001,1.0001 0 0 0 1,1 l 19,0 a 1.0001,1.0001 0 0 0 1,-1 l 0,-19.0001 14,0 0,19.0001 a 1.0001,1.0001 0 0 0 1,1 l 19,0 a 1.0001,1.0001 0 0 0 1,-1 l 0,-34.34379 -2,-1.5625 0,34.90629 -17,0 0,-19.0001 a 1.0001,1.0001 0 0 0 -1,-1 l -16,0 a 1.0001,1.0001 0 0 0 -1,1 l 0,19.0001 -17,0 0,-34.90629 z" fill="#FFFFFF" fill-opacity="1" stroke="none" marker="none" visibility="visible" display="inline" overflow="visible"/></g></svg>
