<svg xmlns="http://www.w3.org/2000/svg" xmlns:xlink="http://www.w3.org/1999/xlink" xml:space="preserve" version="1.0" style="shape-rendering:geometricPrecision;text-rendering:geometricPrecision;image-rendering:optimizeQuality;" viewBox="0 0 100000 125000" x="0px" y="0px" fill-rule="evenodd" clip-rule="evenodd"><defs><style type="text/css">

    .fil0 {fill:white}

  </style></defs><g><path class="fil0" d="M91489 9826c-5573,-5568 -14634,-5568 -20205,0l-57244 57243c-167,178 -353,533 -423,758l-5609 23569c-269,1132 757,2187 1909,1914l23570 -5611c186,-42 612,-275 755,-422l57246 -57246c5569,-5570 5569,-14634 1,-20205zm-2244 2245c3949,3950 4286,10153 1032,14504l-15537 -15536c4351,-3255 10554,-2918 14504,1032l1 0zm-7858 23573l-15716 -15716 2245 -2246 15716 15716 -2245 2246zm-67792 49831l-1200 1202 4052 -17030 7019 -779 -902 8131c-102,963 788,1864 1754,1752l8129 -903 -778 7020 -17031 4052 1202 -1200c1474,-1476 -768,-3722 -2245,-2245l0 0zm22168 -8697l35522 -35524c1476,-1477 -770,-3722 -2245,-2245l-35522 35524 -7578 840 843 -7575 35522 -35522c1479,-1473 -766,-3723 -2243,-2245l-35524 35522 -5054 562 43944 -43943 15715 15715 -43944 43944 564 -5053 0 0zm50113 -45625l-15714 -15715 2245 -2245 15715 15715 -2246 2245z"/></g></svg>
